<mxfile host="Electron" modified="2024-06-11T23:08:52.431Z" agent="Mozilla/5.0 (Windows NT 10.0; Win64; x64) AppleWebKit/537.36 (KHTML, like Gecko) draw.io/21.6.1 Chrome/112.0.5615.204 Electron/24.6.1 Safari/537.36" etag="QUCHGz73vq8nkm7Ly00s" version="21.6.1" type="device">
  <diagram id="C5RBs43oDa-KdzZeNtuy" name="Page-1">
    <mxGraphModel dx="3836" dy="1274" grid="1" gridSize="10" guides="1" tooltips="1" connect="1" arrows="1" fold="1" page="1" pageScale="1" pageWidth="827" pageHeight="1169" math="0" shadow="0">
      <root>
        <mxCell id="WIyWlLk6GJQsqaUBKTNV-0" />
        <mxCell id="WIyWlLk6GJQsqaUBKTNV-1" parent="WIyWlLk6GJQsqaUBKTNV-0" />
        <mxCell id="I6dSZTfenN65n2cmLHXu-10" value="&lt;i&gt;Interface IModel&lt;/i&gt;" style="swimlane;fontStyle=0;childLayout=stackLayout;horizontal=1;startSize=26;fillColor=none;horizontalStack=0;resizeParent=1;resizeParentMax=0;resizeLast=0;collapsible=1;marginBottom=0;whiteSpace=wrap;html=1;" vertex="1" parent="WIyWlLk6GJQsqaUBKTNV-1">
          <mxGeometry x="-336" y="1050" width="190" height="250" as="geometry" />
        </mxCell>
        <mxCell id="I6dSZTfenN65n2cmLHXu-11" value="&lt;div style=&quot;border-color: var(--border-color);&quot;&gt;&lt;i&gt;AddTown(): void&lt;/i&gt;&lt;/div&gt;&lt;div style=&quot;border-color: var(--border-color);&quot;&gt;&lt;i&gt;&lt;br&gt;&lt;/i&gt;&lt;/div&gt;&lt;div style=&quot;border-color: var(--border-color);&quot;&gt;&lt;i&gt;AddPath(int[] towns, int cost): int&lt;/i&gt;&lt;/div&gt;&lt;div style=&quot;border-color: var(--border-color);&quot;&gt;&lt;i&gt;&lt;br&gt;&lt;/i&gt;&lt;/div&gt;&lt;div style=&quot;border-color: var(--border-color);&quot;&gt;&lt;i&gt;DeleteTown(int id): void&lt;/i&gt;&lt;/div&gt;&lt;div style=&quot;border-color: var(--border-color);&quot;&gt;&lt;i&gt;&lt;br&gt;&lt;/i&gt;&lt;/div&gt;&lt;div style=&quot;border-color: var(--border-color);&quot;&gt;&lt;i&gt;DeletePath(int[] towns):void&amp;nbsp;&lt;/i&gt;&lt;/div&gt;&lt;div style=&quot;border-color: var(--border-color);&quot;&gt;&lt;i&gt;&lt;br&gt;&lt;/i&gt;&lt;/div&gt;&lt;div style=&quot;border-color: var(--border-color);&quot;&gt;&lt;i&gt;AddTown(): void&lt;/i&gt;&lt;/div&gt;&lt;div style=&quot;border-color: var(--border-color);&quot;&gt;&lt;i&gt;&lt;br&gt;&lt;/i&gt;&lt;/div&gt;&lt;div style=&quot;border-color: var(--border-color);&quot;&gt;&lt;i&gt;Calculate(): minPath&lt;/i&gt;&lt;/div&gt;&lt;div style=&quot;border-color: var(--border-color);&quot;&gt;&lt;i&gt;&lt;br&gt;&lt;/i&gt;&lt;/div&gt;&lt;div style=&quot;border-color: var(--border-color);&quot;&gt;&lt;i&gt;ClearModel(): void&lt;/i&gt;&lt;/div&gt;&lt;div style=&quot;border-color: var(--border-color);&quot;&gt;&lt;i&gt;&lt;br&gt;&lt;/i&gt;&lt;/div&gt;&lt;div style=&quot;border-color: var(--border-color);&quot;&gt;&lt;i&gt;GetGraph(): IGraph&lt;/i&gt;&lt;/div&gt;" style="text;strokeColor=none;fillColor=none;align=left;verticalAlign=top;spacingLeft=4;spacingRight=4;overflow=hidden;rotatable=0;points=[[0,0.5],[1,0.5]];portConstraint=eastwest;whiteSpace=wrap;html=1;" vertex="1" parent="I6dSZTfenN65n2cmLHXu-10">
          <mxGeometry y="26" width="190" height="224" as="geometry" />
        </mxCell>
        <mxCell id="I6dSZTfenN65n2cmLHXu-16" value="Model" style="swimlane;fontStyle=1;align=center;verticalAlign=top;childLayout=stackLayout;horizontal=1;startSize=26;horizontalStack=0;resizeParent=1;resizeParentMax=0;resizeLast=0;collapsible=1;marginBottom=0;whiteSpace=wrap;html=1;" vertex="1" parent="WIyWlLk6GJQsqaUBKTNV-1">
          <mxGeometry x="-740" y="845" width="200" height="450" as="geometry" />
        </mxCell>
        <mxCell id="I6dSZTfenN65n2cmLHXu-17" value="- _graph: IGraph&lt;br&gt;&lt;br&gt;- minPath: int&lt;br&gt;&lt;br&gt;- minCounter: int&lt;br&gt;&lt;br&gt;- result:&amp;nbsp;List&amp;lt;List&amp;lt;int&amp;gt;&amp;gt;&lt;br&gt;&lt;br&gt;- path: int&amp;nbsp;&lt;br&gt;&lt;br&gt;- p1, p2: int" style="text;strokeColor=none;fillColor=none;align=left;verticalAlign=top;spacingLeft=4;spacingRight=4;overflow=hidden;rotatable=0;points=[[0,0.5],[1,0.5]];portConstraint=eastwest;whiteSpace=wrap;html=1;" vertex="1" parent="I6dSZTfenN65n2cmLHXu-16">
          <mxGeometry y="26" width="200" height="164" as="geometry" />
        </mxCell>
        <mxCell id="I6dSZTfenN65n2cmLHXu-18" value="" style="line;strokeWidth=1;fillColor=none;align=left;verticalAlign=middle;spacingTop=-1;spacingLeft=3;spacingRight=3;rotatable=0;labelPosition=right;points=[];portConstraint=eastwest;strokeColor=inherit;" vertex="1" parent="I6dSZTfenN65n2cmLHXu-16">
          <mxGeometry y="190" width="200" height="8" as="geometry" />
        </mxCell>
        <mxCell id="I6dSZTfenN65n2cmLHXu-19" value="+&amp;nbsp;Model()&lt;br&gt;&lt;br&gt;+ AddTown: void&lt;br&gt;&lt;br&gt;+ AddPath(int[] towns, int cost): int&lt;br&gt;&lt;br&gt;+ DeleteTown(int id): void&lt;br&gt;&lt;br&gt;+ DeletePath(int[] towns): void&lt;br&gt;&lt;br&gt;+ Calculate(): minPath&lt;br&gt;&lt;br&gt;+ Permute(): void&lt;br&gt;&lt;br&gt;+ ClearModel(): void&lt;br&gt;&lt;br&gt;+ GetGraph(): IGraph" style="text;strokeColor=none;fillColor=none;align=left;verticalAlign=top;spacingLeft=4;spacingRight=4;overflow=hidden;rotatable=0;points=[[0,0.5],[1,0.5]];portConstraint=eastwest;whiteSpace=wrap;html=1;" vertex="1" parent="I6dSZTfenN65n2cmLHXu-16">
          <mxGeometry y="198" width="200" height="252" as="geometry" />
        </mxCell>
        <mxCell id="I6dSZTfenN65n2cmLHXu-20" value="structure minPath" style="swimlane;fontStyle=0;childLayout=stackLayout;horizontal=1;startSize=26;fillColor=none;horizontalStack=0;resizeParent=1;resizeParentMax=0;resizeLast=0;collapsible=1;marginBottom=0;whiteSpace=wrap;html=1;" vertex="1" parent="WIyWlLk6GJQsqaUBKTNV-1">
          <mxGeometry x="-710" y="607" width="140" height="78" as="geometry" />
        </mxCell>
        <mxCell id="I6dSZTfenN65n2cmLHXu-21" value="+ cost: int" style="text;strokeColor=none;fillColor=none;align=left;verticalAlign=top;spacingLeft=4;spacingRight=4;overflow=hidden;rotatable=0;points=[[0,0.5],[1,0.5]];portConstraint=eastwest;whiteSpace=wrap;html=1;" vertex="1" parent="I6dSZTfenN65n2cmLHXu-20">
          <mxGeometry y="26" width="140" height="26" as="geometry" />
        </mxCell>
        <mxCell id="I6dSZTfenN65n2cmLHXu-23" value="+ nums: List&amp;lt;int&amp;gt;" style="text;strokeColor=none;fillColor=none;align=left;verticalAlign=top;spacingLeft=4;spacingRight=4;overflow=hidden;rotatable=0;points=[[0,0.5],[1,0.5]];portConstraint=eastwest;whiteSpace=wrap;html=1;" vertex="1" parent="I6dSZTfenN65n2cmLHXu-20">
          <mxGeometry y="52" width="140" height="26" as="geometry" />
        </mxCell>
        <mxCell id="I6dSZTfenN65n2cmLHXu-24" value="&lt;span style=&quot;font-weight: normal;&quot;&gt;&lt;i&gt;Interface IView&lt;/i&gt;&lt;/span&gt;" style="swimlane;fontStyle=1;align=center;verticalAlign=top;childLayout=stackLayout;horizontal=1;startSize=26;horizontalStack=0;resizeParent=1;resizeParentMax=0;resizeLast=0;collapsible=1;marginBottom=0;whiteSpace=wrap;html=1;" vertex="1" parent="WIyWlLk6GJQsqaUBKTNV-1">
          <mxGeometry x="-420" y="30" width="360" height="290" as="geometry" />
        </mxCell>
        <mxCell id="I6dSZTfenN65n2cmLHXu-26" value="" style="line;strokeWidth=1;fillColor=none;align=left;verticalAlign=middle;spacingTop=-1;spacingLeft=3;spacingRight=3;rotatable=0;labelPosition=right;points=[];portConstraint=eastwest;strokeColor=inherit;" vertex="1" parent="I6dSZTfenN65n2cmLHXu-24">
          <mxGeometry y="26" width="360" height="8" as="geometry" />
        </mxCell>
        <mxCell id="I6dSZTfenN65n2cmLHXu-27" value="&lt;div&gt;&lt;i&gt;&lt;div&gt;EventHandler&amp;lt;ClickArgs&amp;gt; AddTown:&amp;nbsp;event&lt;/div&gt;&lt;div&gt;&lt;span style=&quot;background-color: initial;&quot;&gt;&amp;nbsp;&lt;/span&gt;&lt;/div&gt;&lt;/i&gt;&lt;i&gt;&lt;div&gt;EventHandler&amp;lt;ClickArgs&amp;gt; AddPath:&amp;nbsp;event&lt;span style=&quot;background-color: initial;&quot;&gt;&amp;nbsp;&lt;/span&gt;&lt;/div&gt;&lt;/i&gt;&lt;i&gt;&lt;div&gt;&lt;br&gt;&lt;/div&gt;&lt;div&gt;EventHandler&amp;lt;ClickArgs&amp;gt; Clear:&amp;nbsp;event&lt;span style=&quot;background-color: initial;&quot;&gt;&amp;nbsp;&lt;/span&gt;&lt;/div&gt;&lt;/i&gt;&lt;i&gt;&lt;div&gt;&lt;br&gt;&lt;/div&gt;&lt;div&gt;EventHandler&amp;lt;ClickArgs&amp;gt; Calculate:&amp;nbsp;event&lt;span style=&quot;background-color: initial;&quot;&gt;&amp;nbsp;&lt;/span&gt;&lt;/div&gt;&lt;/i&gt;&lt;/div&gt;&lt;div&gt;&lt;i&gt;&lt;br&gt;&lt;/i&gt;&lt;/div&gt;&lt;div&gt;&lt;i&gt;DrawTown(ClickArgs e): void&lt;/i&gt;&lt;/div&gt;&lt;div&gt;&lt;i&gt;&lt;br&gt;&lt;/i&gt;&lt;/div&gt;&lt;div&gt;&lt;i&gt;DrawPath(int[] nums, int cost): void&lt;/i&gt;&lt;/div&gt;&lt;div&gt;&lt;i&gt;&lt;br&gt;&lt;/i&gt;&lt;/div&gt;&lt;div&gt;&lt;i&gt;DrawResult(int[] nums, int cost): void&lt;/i&gt;&lt;/div&gt;&lt;div&gt;&lt;i&gt;&lt;br&gt;&lt;/i&gt;&lt;/div&gt;&lt;div&gt;&lt;i&gt;ClearView(): void&lt;/i&gt;&lt;/div&gt;&lt;div&gt;&lt;i&gt;&lt;br&gt;&lt;/i&gt;&lt;/div&gt;&lt;div&gt;&lt;i&gt;OutputHint(string hint): void&lt;/i&gt;&lt;/div&gt;" style="text;strokeColor=none;fillColor=none;align=left;verticalAlign=top;spacingLeft=4;spacingRight=4;overflow=hidden;rotatable=0;points=[[0,0.5],[1,0.5]];portConstraint=eastwest;whiteSpace=wrap;html=1;" vertex="1" parent="I6dSZTfenN65n2cmLHXu-24">
          <mxGeometry y="34" width="360" height="256" as="geometry" />
        </mxCell>
        <mxCell id="I6dSZTfenN65n2cmLHXu-28" value="&lt;b&gt;App&lt;/b&gt;" style="swimlane;fontStyle=0;childLayout=stackLayout;horizontal=1;startSize=26;fillColor=none;horizontalStack=0;resizeParent=1;resizeParentMax=0;resizeLast=0;collapsible=1;marginBottom=0;whiteSpace=wrap;html=1;" vertex="1" parent="WIyWlLk6GJQsqaUBKTNV-1">
          <mxGeometry x="645" y="960" width="170" height="80" as="geometry" />
        </mxCell>
        <mxCell id="I6dSZTfenN65n2cmLHXu-29" value="App()&lt;br&gt;&lt;br&gt;static Main(string[] args): void" style="text;strokeColor=none;fillColor=none;align=left;verticalAlign=top;spacingLeft=4;spacingRight=4;overflow=hidden;rotatable=0;points=[[0,0.5],[1,0.5]];portConstraint=eastwest;whiteSpace=wrap;html=1;" vertex="1" parent="I6dSZTfenN65n2cmLHXu-28">
          <mxGeometry y="26" width="170" height="54" as="geometry" />
        </mxCell>
        <mxCell id="I6dSZTfenN65n2cmLHXu-42" value="ClickArgs" style="swimlane;fontStyle=1;align=center;verticalAlign=top;childLayout=stackLayout;horizontal=1;startSize=26;horizontalStack=0;resizeParent=1;resizeParentMax=0;resizeLast=0;collapsible=1;marginBottom=0;whiteSpace=wrap;html=1;" vertex="1" parent="WIyWlLk6GJQsqaUBKTNV-1">
          <mxGeometry x="-940" y="90" width="360" height="170" as="geometry" />
        </mxCell>
        <mxCell id="I6dSZTfenN65n2cmLHXu-43" value="&lt;div&gt;+ X: double { get; private set; }&lt;/div&gt;&lt;div&gt;+ Y: double { get; private set; }&lt;/div&gt;&lt;div&gt;+ number: int { get; private set; }&lt;/div&gt;" style="text;strokeColor=none;fillColor=none;align=left;verticalAlign=top;spacingLeft=4;spacingRight=4;overflow=hidden;rotatable=0;points=[[0,0.5],[1,0.5]];portConstraint=eastwest;whiteSpace=wrap;html=1;" vertex="1" parent="I6dSZTfenN65n2cmLHXu-42">
          <mxGeometry y="26" width="360" height="54" as="geometry" />
        </mxCell>
        <mxCell id="I6dSZTfenN65n2cmLHXu-44" value="" style="line;strokeWidth=1;fillColor=none;align=left;verticalAlign=middle;spacingTop=-1;spacingLeft=3;spacingRight=3;rotatable=0;labelPosition=right;points=[];portConstraint=eastwest;strokeColor=inherit;" vertex="1" parent="I6dSZTfenN65n2cmLHXu-42">
          <mxGeometry y="80" width="360" height="8" as="geometry" />
        </mxCell>
        <mxCell id="I6dSZTfenN65n2cmLHXu-45" value="+&amp;nbsp;ClickArgs(double x, double y)&lt;br&gt;&lt;br&gt;+ ClickArgs(double x, double y, int n)&lt;br&gt;&lt;br&gt;+ ClickArgs(int n)&amp;nbsp;" style="text;strokeColor=none;fillColor=none;align=left;verticalAlign=top;spacingLeft=4;spacingRight=4;overflow=hidden;rotatable=0;points=[[0,0.5],[1,0.5]];portConstraint=eastwest;whiteSpace=wrap;html=1;" vertex="1" parent="I6dSZTfenN65n2cmLHXu-42">
          <mxGeometry y="88" width="360" height="82" as="geometry" />
        </mxCell>
        <mxCell id="I6dSZTfenN65n2cmLHXu-46" value="Presentor" style="swimlane;fontStyle=1;align=center;verticalAlign=top;childLayout=stackLayout;horizontal=1;startSize=26;horizontalStack=0;resizeParent=1;resizeLast=0;collapsible=1;marginBottom=0;rounded=0;shadow=0;strokeWidth=1;" vertex="1" parent="WIyWlLk6GJQsqaUBKTNV-1">
          <mxGeometry x="-415" y="570" width="350" height="220" as="geometry">
            <mxRectangle x="130" y="380" width="160" height="26" as="alternateBounds" />
          </mxGeometry>
        </mxCell>
        <mxCell id="I6dSZTfenN65n2cmLHXu-47" value="- view: IView" style="text;align=left;verticalAlign=top;spacingLeft=4;spacingRight=4;overflow=hidden;rotatable=0;points=[[0,0.5],[1,0.5]];portConstraint=eastwest;" vertex="1" parent="I6dSZTfenN65n2cmLHXu-46">
          <mxGeometry y="26" width="350" height="26" as="geometry" />
        </mxCell>
        <mxCell id="I6dSZTfenN65n2cmLHXu-48" value="- model: IModel " style="text;align=left;verticalAlign=top;spacingLeft=4;spacingRight=4;overflow=hidden;rotatable=0;points=[[0,0.5],[1,0.5]];portConstraint=eastwest;rounded=0;shadow=0;html=0;" vertex="1" parent="I6dSZTfenN65n2cmLHXu-46">
          <mxGeometry y="52" width="350" height="26" as="geometry" />
        </mxCell>
        <mxCell id="I6dSZTfenN65n2cmLHXu-49" value="" style="line;html=1;strokeWidth=1;align=left;verticalAlign=middle;spacingTop=-1;spacingLeft=3;spacingRight=3;rotatable=0;labelPosition=right;points=[];portConstraint=eastwest;" vertex="1" parent="I6dSZTfenN65n2cmLHXu-46">
          <mxGeometry y="78" width="350" height="8" as="geometry" />
        </mxCell>
        <mxCell id="I6dSZTfenN65n2cmLHXu-50" value="+ Presentor(IView v, IModel m)" style="text;align=left;verticalAlign=top;spacingLeft=4;spacingRight=4;overflow=hidden;rotatable=0;points=[[0,0.5],[1,0.5]];portConstraint=eastwest;fontStyle=0" vertex="1" parent="I6dSZTfenN65n2cmLHXu-46">
          <mxGeometry y="86" width="350" height="26" as="geometry" />
        </mxCell>
        <mxCell id="I6dSZTfenN65n2cmLHXu-51" value="+ AddTownEventHandler(object sender, ClickArgs e) : void" style="text;align=left;verticalAlign=top;spacingLeft=4;spacingRight=4;overflow=hidden;rotatable=0;points=[[0,0.5],[1,0.5]];portConstraint=eastwest;" vertex="1" parent="I6dSZTfenN65n2cmLHXu-46">
          <mxGeometry y="112" width="350" height="26" as="geometry" />
        </mxCell>
        <mxCell id="I6dSZTfenN65n2cmLHXu-52" value="+ ClearEventHandler(object sender, ClickArgs e): void" style="text;align=left;verticalAlign=top;spacingLeft=4;spacingRight=4;overflow=hidden;rotatable=0;points=[[0,0.5],[1,0.5]];portConstraint=eastwest;fontStyle=0" vertex="1" parent="I6dSZTfenN65n2cmLHXu-46">
          <mxGeometry y="138" width="350" height="26" as="geometry" />
        </mxCell>
        <mxCell id="I6dSZTfenN65n2cmLHXu-53" value="+ CalculatePathEventHandler(object sender, EventArgs e): void " style="text;align=left;verticalAlign=top;spacingLeft=4;spacingRight=4;overflow=hidden;rotatable=0;points=[[0,0.5],[1,0.5]];portConstraint=eastwest;fontStyle=0" vertex="1" parent="I6dSZTfenN65n2cmLHXu-46">
          <mxGeometry y="164" width="350" height="26" as="geometry" />
        </mxCell>
        <mxCell id="I6dSZTfenN65n2cmLHXu-54" value="+ AddPathEventHandler(object sender, ClickArgs e): void" style="text;align=left;verticalAlign=top;spacingLeft=4;spacingRight=4;overflow=hidden;rotatable=0;points=[[0,0.5],[1,0.5]];portConstraint=eastwest;fontStyle=0" vertex="1" parent="I6dSZTfenN65n2cmLHXu-46">
          <mxGeometry y="190" width="350" height="26" as="geometry" />
        </mxCell>
        <mxCell id="I6dSZTfenN65n2cmLHXu-55" value="Interface IPresentor" style="swimlane;fontStyle=2;align=center;verticalAlign=top;childLayout=stackLayout;horizontal=1;startSize=26;horizontalStack=0;resizeParent=1;resizeLast=0;collapsible=1;marginBottom=0;rounded=0;shadow=0;strokeWidth=1;" vertex="1" parent="WIyWlLk6GJQsqaUBKTNV-1">
          <mxGeometry x="70" y="608" width="360" height="144" as="geometry">
            <mxRectangle x="340" y="380" width="170" height="26" as="alternateBounds" />
          </mxGeometry>
        </mxCell>
        <mxCell id="I6dSZTfenN65n2cmLHXu-56" value="" style="line;html=1;strokeWidth=1;align=left;verticalAlign=middle;spacingTop=-1;spacingLeft=3;spacingRight=3;rotatable=0;labelPosition=right;points=[];portConstraint=eastwest;" vertex="1" parent="I6dSZTfenN65n2cmLHXu-55">
          <mxGeometry y="26" width="360" height="8" as="geometry" />
        </mxCell>
        <mxCell id="I6dSZTfenN65n2cmLHXu-57" value="&lt;div&gt;&lt;i&gt;AddTownEventHandler(object sender, ClickArgs e): void&lt;/i&gt;&lt;/div&gt;&lt;i&gt;&lt;br&gt;&lt;span style=&quot;background-color: initial;&quot;&gt;ClearEventHandler(object sender, ClickArgs e): void&lt;/span&gt;&lt;br&gt;&lt;/i&gt;&lt;div&gt;&lt;i style=&quot;background-color: initial;&quot;&gt;&lt;br&gt;&lt;/i&gt;&lt;/div&gt;&lt;div&gt;&lt;i style=&quot;background-color: initial;&quot;&gt;CalculatePathEventHandler(object sender, EventArgs e): void&lt;/i&gt;&lt;br&gt;&lt;/div&gt;&lt;div&gt;&lt;span style=&quot;background-color: initial;&quot;&gt;&lt;i&gt;&lt;br&gt;&lt;/i&gt;&lt;/span&gt;&lt;/div&gt;&lt;div&gt;&lt;span style=&quot;background-color: initial;&quot;&gt;&lt;i&gt;AddPathEventHandler(object sender, ClickArgs e): void&lt;/i&gt;&lt;/span&gt;&lt;/div&gt;" style="text;html=1;align=left;verticalAlign=middle;resizable=0;points=[];autosize=1;strokeColor=none;fillColor=none;" vertex="1" parent="I6dSZTfenN65n2cmLHXu-55">
          <mxGeometry y="34" width="360" height="110" as="geometry" />
        </mxCell>
        <mxCell id="I6dSZTfenN65n2cmLHXu-58" value="" style="endArrow=diamondThin;endFill=1;endSize=24;html=1;rounded=0;" edge="1" parent="WIyWlLk6GJQsqaUBKTNV-1" source="I6dSZTfenN65n2cmLHXu-20" target="I6dSZTfenN65n2cmLHXu-16">
          <mxGeometry width="160" relative="1" as="geometry">
            <mxPoint x="-620" y="995" as="sourcePoint" />
            <mxPoint x="-460" y="995" as="targetPoint" />
          </mxGeometry>
        </mxCell>
        <mxCell id="I6dSZTfenN65n2cmLHXu-59" value="" style="endArrow=block;endSize=16;endFill=0;html=1;rounded=0;edgeStyle=orthogonalEdgeStyle;" edge="1" parent="WIyWlLk6GJQsqaUBKTNV-1" source="I6dSZTfenN65n2cmLHXu-16" target="I6dSZTfenN65n2cmLHXu-10">
          <mxGeometry width="160" relative="1" as="geometry">
            <mxPoint x="-76" y="1080" as="sourcePoint" />
            <mxPoint x="-6" y="1080" as="targetPoint" />
          </mxGeometry>
        </mxCell>
        <mxCell id="I6dSZTfenN65n2cmLHXu-60" value="MainWindow" style="swimlane;fontStyle=1;align=center;verticalAlign=top;childLayout=stackLayout;horizontal=1;startSize=26;horizontalStack=0;resizeParent=1;resizeParentMax=0;resizeLast=0;collapsible=1;marginBottom=0;whiteSpace=wrap;html=1;" vertex="1" parent="WIyWlLk6GJQsqaUBKTNV-1">
          <mxGeometry x="530" y="20" width="400" height="630" as="geometry" />
        </mxCell>
        <mxCell id="I6dSZTfenN65n2cmLHXu-61" value="&lt;div&gt;+ event EventHandler&amp;lt;ClickArgs&amp;gt; AddTown;&lt;/div&gt;&lt;div&gt;&lt;br&gt;&lt;/div&gt;&lt;div&gt;&lt;span style=&quot;background-color: initial;&quot;&gt;+ event EventHandler&amp;lt;ClickArgs&amp;gt; AddPath;&lt;/span&gt;&lt;br&gt;&lt;/div&gt;&lt;div&gt;&lt;br&gt;&lt;/div&gt;&lt;div&gt;+ event EventHandler&amp;lt;ClickArgs&amp;gt; Clear;&lt;/div&gt;&lt;div&gt;&lt;br&gt;&lt;/div&gt;&lt;div&gt;+ event EventHandler&amp;lt;ClickArgs&amp;gt; Calculate;&lt;/div&gt;&lt;div&gt;&lt;br&gt;&lt;/div&gt;&lt;div&gt;&lt;span style=&quot;background-color: initial;&quot;&gt;- _image: ImageSource&lt;/span&gt;&lt;/div&gt;&lt;div&gt;&lt;span style=&quot;background-color: initial;&quot;&gt;&lt;br&gt;&lt;/span&gt;&lt;/div&gt;&lt;div&gt;-&amp;nbsp; _brush: ImageBrush&lt;/div&gt;&lt;div&gt;&lt;br&gt;&lt;/div&gt;&lt;div&gt;-&amp;nbsp; _size: double&lt;/div&gt;&lt;div&gt;&lt;br&gt;&lt;/div&gt;&lt;div&gt;-&amp;nbsp; AllTowns: List&amp;lt;Coordinates&amp;gt;&lt;/div&gt;&lt;div&gt;&lt;br&gt;&lt;/div&gt;&lt;div&gt;-&amp;nbsp; _selectedPath: List&amp;lt;Line&amp;gt;&lt;/div&gt;" style="text;strokeColor=none;fillColor=none;align=left;verticalAlign=top;spacingLeft=4;spacingRight=4;overflow=hidden;rotatable=0;points=[[0,0.5],[1,0.5]];portConstraint=eastwest;whiteSpace=wrap;html=1;" vertex="1" parent="I6dSZTfenN65n2cmLHXu-60">
          <mxGeometry y="26" width="400" height="254" as="geometry" />
        </mxCell>
        <mxCell id="I6dSZTfenN65n2cmLHXu-62" value="" style="line;strokeWidth=1;fillColor=none;align=left;verticalAlign=middle;spacingTop=-1;spacingLeft=3;spacingRight=3;rotatable=0;labelPosition=right;points=[];portConstraint=eastwest;strokeColor=inherit;" vertex="1" parent="I6dSZTfenN65n2cmLHXu-60">
          <mxGeometry y="280" width="400" height="8" as="geometry" />
        </mxCell>
        <mxCell id="I6dSZTfenN65n2cmLHXu-63" value="+&amp;nbsp;MainWindow()&lt;br&gt;&lt;br&gt;- canvas_LeftMouseDown(object sender, MouseButtonEventArgs e): void&lt;br&gt;&lt;br&gt;+ DrawTown(ClickArgs e): void&lt;br&gt;&lt;br&gt;- CheckTown(MouseEventArgs e): int&lt;br&gt;&lt;br&gt;+ DrawPath(int[] nums, int cost):&amp;nbsp;void&lt;br&gt;&lt;br&gt;+&amp;nbsp;DrawResult(int[] nums, int cost): void&lt;br&gt;&lt;br&gt;+ ClearView(): void&lt;br&gt;&lt;br&gt;+&amp;nbsp;AddPathClick(object sender, RoutedEventArgs e): void&lt;br&gt;&lt;br&gt;+&amp;nbsp;ClearClick(object sender, RoutedEventArgs e): void&lt;br&gt;&lt;br&gt;+&amp;nbsp;CalculatePathClick(object sender, RoutedEventArgs e): void&lt;br&gt;&lt;br&gt;+&amp;nbsp;OutputHint(string hint): void&lt;br&gt;&lt;br&gt;+ ClearSelectedPath(): void" style="text;strokeColor=none;fillColor=none;align=left;verticalAlign=top;spacingLeft=4;spacingRight=4;overflow=hidden;rotatable=0;points=[[0,0.5],[1,0.5]];portConstraint=eastwest;whiteSpace=wrap;html=1;" vertex="1" parent="I6dSZTfenN65n2cmLHXu-60">
          <mxGeometry y="288" width="400" height="342" as="geometry" />
        </mxCell>
        <mxCell id="I6dSZTfenN65n2cmLHXu-64" value="" style="endArrow=diamondThin;endFill=1;endSize=24;html=1;rounded=0;" edge="1" parent="WIyWlLk6GJQsqaUBKTNV-1" source="I6dSZTfenN65n2cmLHXu-42" target="I6dSZTfenN65n2cmLHXu-24">
          <mxGeometry width="160" relative="1" as="geometry">
            <mxPoint x="-520" y="-30" as="sourcePoint" />
            <mxPoint x="-590" y="-30" as="targetPoint" />
          </mxGeometry>
        </mxCell>
        <mxCell id="I6dSZTfenN65n2cmLHXu-65" value="" style="endArrow=block;endSize=16;endFill=0;html=1;rounded=0;edgeStyle=orthogonalEdgeStyle;" edge="1" parent="WIyWlLk6GJQsqaUBKTNV-1" source="I6dSZTfenN65n2cmLHXu-24" target="I6dSZTfenN65n2cmLHXu-60">
          <mxGeometry width="160" relative="1" as="geometry">
            <mxPoint x="50" y="530" as="sourcePoint" />
            <mxPoint x="-80" y="530" as="targetPoint" />
          </mxGeometry>
        </mxCell>
        <mxCell id="I6dSZTfenN65n2cmLHXu-66" value="" style="endArrow=diamondThin;endFill=1;endSize=24;html=1;rounded=0;edgeStyle=orthogonalEdgeStyle;" edge="1" parent="WIyWlLk6GJQsqaUBKTNV-1" source="I6dSZTfenN65n2cmLHXu-10" target="I6dSZTfenN65n2cmLHXu-46">
          <mxGeometry width="160" relative="1" as="geometry">
            <mxPoint x="-240" y="890" as="sourcePoint" />
            <mxPoint x="-80" y="890" as="targetPoint" />
          </mxGeometry>
        </mxCell>
        <mxCell id="I6dSZTfenN65n2cmLHXu-67" value="" style="endArrow=block;endSize=16;endFill=0;html=1;rounded=0;edgeStyle=orthogonalEdgeStyle;" edge="1" parent="WIyWlLk6GJQsqaUBKTNV-1" source="I6dSZTfenN65n2cmLHXu-55" target="I6dSZTfenN65n2cmLHXu-46">
          <mxGeometry width="160" relative="1" as="geometry">
            <mxPoint x="-500" y="870" as="sourcePoint" />
            <mxPoint x="-320" y="880" as="targetPoint" />
            <Array as="points">
              <mxPoint x="40" y="680" />
              <mxPoint x="40" y="680" />
            </Array>
          </mxGeometry>
        </mxCell>
        <mxCell id="I6dSZTfenN65n2cmLHXu-68" value="" style="endArrow=diamondThin;endFill=1;endSize=24;html=1;rounded=0;edgeStyle=orthogonalEdgeStyle;" edge="1" parent="WIyWlLk6GJQsqaUBKTNV-1" source="I6dSZTfenN65n2cmLHXu-24" target="I6dSZTfenN65n2cmLHXu-46">
          <mxGeometry width="160" relative="1" as="geometry">
            <mxPoint x="-360" y="510" as="sourcePoint" />
            <mxPoint x="-200" y="510" as="targetPoint" />
          </mxGeometry>
        </mxCell>
        <mxCell id="I6dSZTfenN65n2cmLHXu-71" value="&lt;i&gt;Interface IGraph&lt;/i&gt;" style="swimlane;fontStyle=0;childLayout=stackLayout;horizontal=1;startSize=26;fillColor=none;horizontalStack=0;resizeParent=1;resizeParentMax=0;resizeLast=0;collapsible=1;marginBottom=0;whiteSpace=wrap;html=1;" vertex="1" parent="WIyWlLk6GJQsqaUBKTNV-1">
          <mxGeometry x="-1080" y="975" width="230" height="190" as="geometry" />
        </mxCell>
        <mxCell id="I6dSZTfenN65n2cmLHXu-72" value="&lt;div&gt;&lt;i&gt;AddNode(): void&lt;/i&gt;&lt;/div&gt;&lt;div&gt;&lt;i&gt;&lt;br&gt;&lt;/i&gt;&lt;/div&gt;&lt;div&gt;&lt;i&gt;DeleteNode(int id): void&lt;/i&gt;&lt;/div&gt;&lt;div&gt;&lt;i&gt;&lt;br&gt;&lt;/i&gt;&lt;/div&gt;&lt;div&gt;&lt;i&gt;GetAllNodes(): List&amp;lt;List&amp;lt;int&amp;gt;&amp;gt;&lt;/i&gt;&lt;/div&gt;&lt;div&gt;&lt;i&gt;&lt;br&gt;&lt;/i&gt;&lt;/div&gt;&lt;div&gt;&lt;i&gt;AddPath(int[] nums, int cost): int&lt;/i&gt;&lt;/div&gt;&lt;div&gt;&lt;i&gt;&lt;br&gt;&lt;/i&gt;&lt;/div&gt;&lt;div&gt;&lt;i&gt;DeletePath(int[] nums): void&lt;/i&gt;&lt;/div&gt;&lt;div&gt;&lt;i&gt;&lt;br&gt;&lt;/i&gt;&lt;/div&gt;&lt;div&gt;&lt;i&gt;Clear(): void&lt;/i&gt;&lt;/div&gt;" style="text;strokeColor=none;fillColor=none;align=left;verticalAlign=top;spacingLeft=4;spacingRight=4;overflow=hidden;rotatable=0;points=[[0,0.5],[1,0.5]];portConstraint=eastwest;whiteSpace=wrap;html=1;" vertex="1" parent="I6dSZTfenN65n2cmLHXu-71">
          <mxGeometry y="26" width="230" height="164" as="geometry" />
        </mxCell>
        <mxCell id="I6dSZTfenN65n2cmLHXu-73" value="Graph" style="swimlane;fontStyle=1;align=center;verticalAlign=top;childLayout=stackLayout;horizontal=1;startSize=26;horizontalStack=0;resizeParent=1;resizeParentMax=0;resizeLast=0;collapsible=1;marginBottom=0;whiteSpace=wrap;html=1;" vertex="1" parent="WIyWlLk6GJQsqaUBKTNV-1">
          <mxGeometry x="-1060" y="585" width="190" height="260" as="geometry" />
        </mxCell>
        <mxCell id="I6dSZTfenN65n2cmLHXu-74" value="- _nodes: List&amp;lt;List&amp;lt;int&amp;gt;&amp;gt;&amp;nbsp;" style="text;strokeColor=none;fillColor=none;align=left;verticalAlign=top;spacingLeft=4;spacingRight=4;overflow=hidden;rotatable=0;points=[[0,0.5],[1,0.5]];portConstraint=eastwest;whiteSpace=wrap;html=1;" vertex="1" parent="I6dSZTfenN65n2cmLHXu-73">
          <mxGeometry y="26" width="190" height="26" as="geometry" />
        </mxCell>
        <mxCell id="I6dSZTfenN65n2cmLHXu-75" value="" style="line;strokeWidth=1;fillColor=none;align=left;verticalAlign=middle;spacingTop=-1;spacingLeft=3;spacingRight=3;rotatable=0;labelPosition=right;points=[];portConstraint=eastwest;strokeColor=inherit;" vertex="1" parent="I6dSZTfenN65n2cmLHXu-73">
          <mxGeometry y="52" width="190" height="8" as="geometry" />
        </mxCell>
        <mxCell id="I6dSZTfenN65n2cmLHXu-76" value="+ Graph()&lt;br&gt;&lt;span style=&quot;border-color: var(--border-color);&quot;&gt;&lt;br&gt;+ AddNode(): void&lt;br&gt;&lt;br&gt;&lt;div style=&quot;border-color: var(--border-color);&quot;&gt;&lt;span style=&quot;border-color: var(--border-color);&quot;&gt;+ DeleteNode(int id): void&lt;/span&gt;&lt;/div&gt;&lt;div style=&quot;border-color: var(--border-color);&quot;&gt;&lt;span style=&quot;border-color: var(--border-color);&quot;&gt;&lt;br style=&quot;border-color: var(--border-color);&quot;&gt;&lt;/span&gt;&lt;/div&gt;&lt;div style=&quot;border-color: var(--border-color);&quot;&gt;&lt;span style=&quot;border-color: var(--border-color);&quot;&gt;+ GetAllNodes(): List&amp;lt;List&amp;lt;int&amp;gt;&amp;gt;&lt;/span&gt;&lt;/div&gt;&lt;div style=&quot;border-color: var(--border-color);&quot;&gt;&lt;span style=&quot;border-color: var(--border-color);&quot;&gt;&lt;br style=&quot;border-color: var(--border-color);&quot;&gt;&lt;/span&gt;&lt;/div&gt;&lt;div style=&quot;border-color: var(--border-color);&quot;&gt;&lt;span style=&quot;border-color: var(--border-color);&quot;&gt;+ AddPath(int[] nums, int cost): int&lt;/span&gt;&lt;/div&gt;&lt;div style=&quot;border-color: var(--border-color);&quot;&gt;&lt;span style=&quot;border-color: var(--border-color);&quot;&gt;&lt;br style=&quot;border-color: var(--border-color);&quot;&gt;&lt;/span&gt;&lt;/div&gt;&lt;div style=&quot;border-color: var(--border-color);&quot;&gt;&lt;span style=&quot;border-color: var(--border-color);&quot;&gt;+ DeletePath(int[] nums): void&lt;/span&gt;&lt;/div&gt;&lt;div style=&quot;border-color: var(--border-color);&quot;&gt;&lt;span style=&quot;border-color: var(--border-color);&quot;&gt;&lt;br style=&quot;border-color: var(--border-color);&quot;&gt;&lt;/span&gt;&lt;/div&gt;&lt;div style=&quot;border-color: var(--border-color);&quot;&gt;&lt;span style=&quot;border-color: var(--border-color);&quot;&gt;+ Clear(): void&lt;/span&gt;&lt;/div&gt;&lt;/span&gt;" style="text;strokeColor=none;fillColor=none;align=left;verticalAlign=top;spacingLeft=4;spacingRight=4;overflow=hidden;rotatable=0;points=[[0,0.5],[1,0.5]];portConstraint=eastwest;whiteSpace=wrap;html=1;" vertex="1" parent="I6dSZTfenN65n2cmLHXu-73">
          <mxGeometry y="60" width="190" height="200" as="geometry" />
        </mxCell>
        <mxCell id="I6dSZTfenN65n2cmLHXu-77" value="" style="endArrow=diamondThin;endFill=1;endSize=24;html=1;rounded=0;edgeStyle=orthogonalEdgeStyle;" edge="1" parent="WIyWlLk6GJQsqaUBKTNV-1" source="I6dSZTfenN65n2cmLHXu-71" target="I6dSZTfenN65n2cmLHXu-16">
          <mxGeometry width="160" relative="1" as="geometry">
            <mxPoint x="-750" y="765" as="sourcePoint" />
            <mxPoint x="-590" y="765" as="targetPoint" />
          </mxGeometry>
        </mxCell>
        <mxCell id="I6dSZTfenN65n2cmLHXu-78" value="" style="endArrow=block;endSize=16;endFill=0;html=1;rounded=0;" edge="1" parent="WIyWlLk6GJQsqaUBKTNV-1" source="I6dSZTfenN65n2cmLHXu-73" target="I6dSZTfenN65n2cmLHXu-71">
          <mxGeometry width="160" relative="1" as="geometry">
            <mxPoint x="-1280" y="735" as="sourcePoint" />
            <mxPoint x="-990" y="735" as="targetPoint" />
          </mxGeometry>
        </mxCell>
        <mxCell id="I6dSZTfenN65n2cmLHXu-79" value="" style="endArrow=none;html=1;rounded=0;" edge="1" parent="WIyWlLk6GJQsqaUBKTNV-1" source="I6dSZTfenN65n2cmLHXu-60" target="I6dSZTfenN65n2cmLHXu-28">
          <mxGeometry width="50" height="50" relative="1" as="geometry">
            <mxPoint x="470" y="880" as="sourcePoint" />
            <mxPoint x="520" y="830" as="targetPoint" />
          </mxGeometry>
        </mxCell>
        <mxCell id="I6dSZTfenN65n2cmLHXu-80" value="" style="endArrow=none;html=1;rounded=0;edgeStyle=orthogonalEdgeStyle;" edge="1" parent="WIyWlLk6GJQsqaUBKTNV-1" source="I6dSZTfenN65n2cmLHXu-55" target="I6dSZTfenN65n2cmLHXu-28">
          <mxGeometry width="50" height="50" relative="1" as="geometry">
            <mxPoint x="180" y="910" as="sourcePoint" />
            <mxPoint x="230" y="860" as="targetPoint" />
            <Array as="points">
              <mxPoint x="240" y="1000" />
            </Array>
          </mxGeometry>
        </mxCell>
        <mxCell id="I6dSZTfenN65n2cmLHXu-81" value="" style="endArrow=none;html=1;rounded=0;edgeStyle=orthogonalEdgeStyle;" edge="1" parent="WIyWlLk6GJQsqaUBKTNV-1" source="I6dSZTfenN65n2cmLHXu-10" target="I6dSZTfenN65n2cmLHXu-28">
          <mxGeometry width="50" height="50" relative="1" as="geometry">
            <mxPoint x="360" y="1270" as="sourcePoint" />
            <mxPoint x="410" y="1220" as="targetPoint" />
          </mxGeometry>
        </mxCell>
      </root>
    </mxGraphModel>
  </diagram>
</mxfile>
